<?xml version="1.0" standalone="no"?>
<!DOCTYPE svg PUBLIC "-//W3C//DTD SVG 20010904//EN"
 "http://www.w3.org/TR/2001/REC-SVG-20010904/DTD/svg10.dtd">
<svg version="1.0" xmlns="http://www.w3.org/2000/svg"
 width="450.000000pt" height="450.000000pt" viewBox="0 0 450.000000 450.000000"
 preserveAspectRatio="xMidYMid meet">
<metadata>
Created by potrace 1.11, written by Peter Selinger 2001-2013
</metadata>
<g transform="translate(0.000000,450.000000) scale(0.100000,-0.100000)"
fill="#000000" stroke="none">
<path d="M2070 4494 c-706 -65 -1323 -434 -1710 -1024 -76 -116 -186 -340
-233 -475 -42 -122 -80 -273 -103 -420 -25 -154 -25 -496 0 -650 40 -252 99
-440 206 -660 220 -453 582 -815 1035 -1035 220 -107 408 -166 660 -206 154
-25 496 -25 650 0 252 40 440 99 660 206 453 220 815 582 1035 1035 107 220
166 408 206 660 25 154 25 496 0 650 -40 252 -99 440 -206 660 -320 659 -931
1113 -1665 1236 -117 19 -427 33 -535 23z m345 -518 c50 -9 122 -24 160 -34
l70 -18 3 -81 3 -80 -83 24 c-375 108 -786 73 -1144 -98 -325 -155 -608 -438
-763 -763 -213 -446 -213 -956 0 -1402 155 -325 438 -608 763 -763 319 -152
667 -197 1019 -129 l57 11 0 203 0 204 -325 0 -325 0 0 75 0 75 400 0 400 0
-2 -337 -3 -337 -70 -18 c-260 -68 -552 -74 -823 -18 -435 90 -848 370 -1097
745 -166 248 -262 512 -294 807 -71 644 233 1293 774 1653 242 162 504 259
795 295 102 12 375 4 485 -14z m12 -1235 l-87 -88 0 -203 c0 -122 4 -200 9
-198 6 2 114 119 241 261 l232 257 80 0 c44 0 78 -4 76 -9 -1 -5 -88 -105
-193 -222 -104 -117 -196 -221 -202 -230 -11 -15 -5 -27 40 -86 29 -37 130
-170 225 -295 l173 -228 -84 0 -85 0 -187 246 c-103 135 -190 244 -193 242 -4
-2 -35 -33 -69 -69 l-63 -66 0 -176 0 -177 -70 0 -70 0 0 465 0 466 -112 -3
-113 -3 -5 -355 c-5 -347 -6 -356 -29 -407 -26 -58 -78 -110 -143 -144 -33
-18 -65 -24 -139 -27 -115 -5 -186 12 -251 61 -50 37 -98 124 -106 192 l-5 45
70 0 70 0 7 -38 c8 -55 44 -103 96 -130 37 -19 56 -23 106 -19 73 5 123 35
156 92 23 39 23 46 26 388 l3 347 -203 0 -203 0 100 100 100 100 444 0 445 0
-87 -89z"/>
</g>
</svg>
